# xmcd CD database file
#
# Track frame offsets:
#	150
#	16269
#	36181
#	56076
#	83077
#	107634
#	123907
#	143869
#	155809
#	168181
#	189396
#	211803
#	224581
#	248315
#
# Disc length: 3700 seconds
#
# Revision: 0
# Processed by: cddbd v1.5.2PL0 Copyright (c) Steve Scherf et al.
# Submitted via: CDex 1.60beta1
#
DISCID=b90e720e
DTITLE=Extra-Large Partyband - Rock Funk Soul Blues
DYEAR=2006
DGENRE=Blues
TTITLE0=I Believe I'm In Love With You
TTITLE1=You Can Leave Your Hat On
TTITLE2=Maybe I'm Amazed
TTITLE3=Mustang Sally
TTITLE4=Sweet Home Chicago
TTITLE5=Addicted To Love
TTITLE6=Brick House
TTITLE7=Play That Funky Music
TTITLE8=I Feel Good
TTITLE9=I Never Loved A Man
TTITLE10=A Real Mother For You
TTITLE11=Set Them Free
TTITLE12=Soul Man
TTITLE13=Stop
EXTD=YEAR: 2006
EXTT0=
EXTT1=
EXTT2=
EXTT3=
EXTT4=
EXTT5=
EXTT6=
EXTT7=
EXTT8=
EXTT9=
EXTT10=
EXTT11=
EXTT12=
EXTT13=
PLAYORDER=
